<?xml version="1.0" encoding="utf-8"?>
<!-- Generator: Adobe Illustrator 24.3.0, SVG Export Plug-In . SVG Version: 6.00 Build 0)  -->
<svg version="1.1" xmlns="http://www.w3.org/2000/svg" xmlns:xlink="http://www.w3.org/1999/xlink" x="0px" y="0px"
	 viewBox="0 0 500 500" style="enable-background:new 0 0 500 500;" xml:space="preserve">
<style type="text/css">
	.st0{fill-rule:evenodd;clip-rule:evenodd;fill:none;}
	.st1{fill:#C10016;}
	.st2{font-family:'OpenSans-Extrabold';}
	.st3{font-size:54.0876px;}
	.st4{letter-spacing:-4;}
	.st5{fill:#20201E;}
	.st6{fill:#000005;}
	.st7{font-family:'OpenSans';}
	.st8{font-size:18.3473px;}
	.st9{letter-spacing:2;}
	.st10{fill-rule:evenodd;clip-rule:evenodd;fill:#DC9118;}
	.st11{fill-rule:evenodd;clip-rule:evenodd;fill:#000005;}
	.st12{fill-rule:evenodd;clip-rule:evenodd;fill:#FFFFFF;}
	.st13{fill-rule:evenodd;clip-rule:evenodd;fill:#EDCBAA;}
	.st14{fill-rule:evenodd;clip-rule:evenodd;fill:#AFB0B0;}
	.st15{fill-rule:evenodd;clip-rule:evenodd;fill:#C4C4C4;}
	.st16{fill-rule:evenodd;clip-rule:evenodd;fill:#D98B58;}
	.st17{fill-rule:evenodd;clip-rule:evenodd;fill:#C10016;}
	.st18{fill-rule:evenodd;clip-rule:evenodd;fill:#000006;}
	.st19{fill-rule:evenodd;clip-rule:evenodd;fill:#000508;}
	.st20{fill-rule:evenodd;clip-rule:evenodd;fill:#020307;}
	.st21{fill-rule:evenodd;clip-rule:evenodd;fill:#121212;}
	.st22{fill-rule:evenodd;clip-rule:evenodd;fill:#171717;}
	.st23{fill-rule:evenodd;clip-rule:evenodd;fill:#000004;}
	.st24{fill-rule:evenodd;clip-rule:evenodd;fill:#000003;}
	.st25{fill-rule:evenodd;clip-rule:evenodd;fill:#242626;}
	.st26{fill-rule:evenodd;clip-rule:evenodd;fill:#20201E;}
	.st27{fill-rule:evenodd;clip-rule:evenodd;fill:#911B19;}
</style>
<g id="BACKGROUND">
	<rect class="st0" width="500" height="500"/>
</g>
<g id="OBJECTS">
	<g>
		<text transform="matrix(1 0 0 1 115.1309 421.1455)"><tspan x="0" y="0" class="st1 st2 st3 st4">C</tspan><tspan x="27.04" y="0" class="st1 st2 st3 st4">HEF</tspan><tspan x="102.28" y="0" class="st5 st2 st3 st4"> </tspan><tspan x="109.42" y="0" class="st6 st2 st3 st4">LOGO</tspan></text>
		<text transform="matrix(1 0 0 1 181.551 442.2131)"><tspan x="0" y="0" class="st6 st7 st8 st9">t</tspan><tspan x="9.01" y="0" class="st6 st7 st8 st9">agline here</tspan></text>
		<g>
			
				<ellipse transform="matrix(0.7071 -0.7071 0.7071 0.7071 -93.0952 249.4906)" class="st10" cx="254.61" cy="237.12" rx="118.58" ry="118.58"/>
			<g>
				<g>
					<g>
						<path class="st11" d="M226.41,112.43c-3.94-2.72-7.57-5.62-10.61-9.21c-4.78-5.66-7.58-12.01-7.07-19.61
							c0.73-10.92,10.65-20.73,21.21-20.28c3.19,0.14,4.75-0.7,6.65-3.12c4.58-5.83,11.1-8.82,18.17-10.54
							c10.19-2.48,20.23-2.2,29.91,2.23c6.96,3.18,11.99,8.26,14.67,15.51c0.36,0.96,0.61,1.42,1.85,1.03
							c13.18-4.09,27.62,4.73,30.15,18.36c1.08,5.79,0.32,11.36-2.23,16.65c-0.7,1.44-0.66,2.07,0.75,3.24
							c3.66,3.01,5.59,7.14,5.96,11.9c0.62,8.07-1.84,15-8.26,20.08c-5.97,4.73-12.66,4.42-19.43,1.85
							c-1.17-0.45-2.26-1.09-3.41-1.61c-0.38-0.17-0.81-0.75-1.23-0.11c-0.52,0.79-1.2,1.5-1.39,2.46c-0.02,0.08,0.46,0.34,0.73,0.4
							c5.87,1.3,8.88,7.86,6.43,14.29c-1.5,3.94-4.39,6.67-7.92,8.79c-2.21,1.33-4.6,2.3-7.07,3.06c-1.47,0.45-2.91,0.77-4.41,0.26
							c-0.88-0.3-1.27-0.08-1.4,0.91c-0.29,2.26-0.66,4.51-1.07,6.75c-0.15,0.84,0.1,1.12,0.91,1.35c2.07,0.58,4.09,1.35,6.17,1.93
							c1.4,0.39,2.03,1.21,2.27,2.64c0.62,3.72,1.42,7.42,2.04,11.15c0.17,1.02,0.62,1.36,1.54,1.62
							c10.68,2.97,21.33,6.03,32.03,8.94c2.28,0.62,3.8,1.8,4.87,3.85c1.83,3.52,3.16,7.24,4.55,10.93
							c3.17,8.4,5.95,16.96,10.07,24.97c0.79,1.54,1.7,3.03,2.67,4.47c0.7,1.04,1.54,1.96,2.76,2.5c4.26,1.88,6.98,4.89,6.73,9.82
							c-0.27,5.19,1.28,9.87,3.54,14.44c1.22,2.46,1.97,5.14,3.02,7.69c3.44,8.35,1.78,16.27-2.2,23.87
							c-4.26,8.12-11.08,13.75-18.82,18.38c-6.61,3.96-13.65,6.96-20.98,9.29c-1.3,0.41-2.08,1.04-2.22,2.39
							c-0.01,0.12-0.04,0.24-0.07,0.35c-1.97,7.12-2.02,7.15-9.2,8.84c-4.43,1.04-8.85,2.16-13.3,3.15
							c-4.96,1.11-0.24,15.37-2.21,17.82c-0.31,0.39-2.66-10.92-3.31-10.68c-12.55,4.45-25.25,9.31-39.33,9.31
							c-20.73,0-40.24-5.26-57.26-14.51c-0.43-0.24-0.66,3.38-1.09,3.14c-0.34-0.19-0.89-4.24-1.23-4.44
							c-5.24-3-10.23-6.38-14.93-10.11c-0.79-0.63-3.87,7.66-4.65,7.01c1.24-11.76,3.96-22.46,5.67-34.08
							c0.32-2.18,0.21-4.35-0.21-6.45c-1.2-5.94-0.17-11.7,0.96-17.49c0.34-1.76,0.65-3.53,1.05-5.74
							c-2.89,3.12-5.37,6.03-8.08,8.71c-7.49,7.4-16.12,13.18-25.65,17.64c-4.48,2.1-8.57,1.53-12.43-1.55
							c-7.49-5.96-13.41-13.17-17.65-21.76c-2.1-4.26-1.67-8.62-0.67-13.02c1.18-5.23,3.12-10.18,5.41-15
							c0.38-0.81,0.35-1.32-0.15-2.08c-1.83-2.75-3.45-5.61-4.1-8.92c-0.35-1.8-0.07-3.43,0.72-5.05c1.72-3.52,4.01-6.67,6.27-9.85
							c0.38-0.53,0.76-1.06,1.21-1.7c-4.59-0.79-9.06-1.47-13.49-2.34c-9.38-1.84-18.58-4.25-27.03-8.9
							c-2.91-1.6-5.64-3.45-7.73-6.08c-2.94-3.68-2.75-7.46,0.59-10.78c3.29-3.27,7.5-4.88,11.78-6.31
							c3.81-1.28,7.73-2.17,11.7-2.81c0.98-0.16,1.43-0.57,1.81-1.4c2.15-4.62,4.63-9.06,7.02-13.56c2.08-3.92,5.24-6.48,9.16-8.27
							c7.56-3.45,15.6-5.03,23.77-6.07c2.5-0.32,5.01-0.5,7.53-0.66c0.83-0.05,1.06-0.27,1.12-1.14c0.35-5.37,4.19-8.83,9.19-8.37
							c4.69,0.43,7.95,4.68,7.33,9.73c-0.15,1.24,0.32,1.48,1.35,1.7c7.59,1.65,14.87,4.15,21.62,8.06
							c3.08,1.78,5.89,3.91,8.55,6.27c3.44,3.06,5.52,6.88,6.66,11.28c0.32,1.22,0.79,2.39,1.07,3.62c0.18,0.82,0.59,0.93,1.28,0.78
							c2.75-0.6,5.51-1.19,8.26-1.79c0.58-0.13,1.08-0.36,0.79-1.09c-0.49-1.21,0.3-1.71,1.14-2.28c1.68-1.15,3.31-2.38,4.99-3.55
							c0.63-0.44,0.74-0.79,0.38-1.59c-4.8-10.76-7.52-22.11-9.14-33.72c-0.61-4.35,0.71-8.58,1.49-12.82c0.19-1.04,0.18-1.99-0.1-3
							c-0.88-3.24-1.6-6.51-2.32-9.79c-0.97-4.41,0.52-7.74,3.73-10.57C225.21,113.59,225.76,113.04,226.41,112.43z"/>
						<path class="st12" d="M243.8,230.36c2.56,4.6,5.28,8.88,8.93,12.48c2.43,2.41,5.2,4.2,8.51,5.18
							c5.41,1.6,8.92,3.95,14.21,5.88c0.73,0.27,0.96,0.68,1.05,1.42c0.59,4.76,0.61,4.75-4.02,6.22
							c-3.99,1.27-6.33,2.65-10.35,3.83c-2.23,0.66-3.28,2.16-3.55,4.26c-0.35,2.69,0.01,5.31,1.87,7.45
							c0.5,0.58,0.38,0.98,0.21,1.58c-0.95,3.27-0.45,6.2,2.3,8.44c0.6,0.49,0.58,0.89,0.45,1.52c-0.42,2.04,0.06,3.82,1.78,5.12
							c0.65,0.5,1,0.98,0.62,1.81c-0.1,0.21-0.06,0.47-0.08,0.71c-0.58,6.59,0.52,8.27,6.84,10.05c1.78,0.5,3.62,0.84,5.45,1.15
							c1.83,0.31,3.49,0.04,4.44-1.86c0.12-0.25,0.27-0.59,0.63-0.57c2.24,0.15,4.38-0.59,6.6-0.69c1.33-0.06,1.2,0.89,1.27,1.7
							c-1.37,10.17,1.19,18.99,0.91,25.1c-0.38,8.58-6.67,13.08-8.38,21.52c-0.08,0.42,7.85-11.59,9.93-10.6
							c2.31,1.1,5.01,11.43,4.9,11.89c-0.46,1.91-2.4,3.92-5.01,5.83c-10.88,3.25-22.41,4.99-34.34,4.99
							c-20.84,0-40.43-5.31-57.5-14.65c0.4-8.3,0.8-16.59,1.25-24.88c0.33-6.18,1.48-12.27,2.28-18.39
							c1.69-12.91,3.48-25.81,5.22-38.71c0.85-6.3,1.73-12.6,2.51-18.91c0.16-1.27,0.85-1.19,1.72-1.18
							c5.59,0.02,11-0.79,15.89-3.75c5.09-3.08,8.94-7.4,12.3-12.22C242.97,231.55,243.34,231.02,243.8,230.36z"/>
						<path class="st12" d="M329.79,207.06c-6.61,6.44-9.24,10.02-10.37,14.43c1.03-1.36,1.76-2.32,2.49-3.29
							c2.56-3.42,5.21-6.75,8.65-9.36c1.96-1.48,2.08-1.48,3.19,0.79c2.22,4.53,3.82,9.3,5.58,14.01
							c3.12,8.35,5.98,16.81,10.51,24.58c-2.28-0.88-3.66-2.54-8.78-10.36c0.85,3.69,2.57,6.92,5.12,9.76
							c2.55,2.84,5.89,4.52,9.2,6.17c2.9,1.45,4.66,3.25,4.52,6.78c-0.12,2.85,0.01,5.79,0.74,8.58c1.55,5.93,1.56,12.22,4.19,17.89
							c0.17,0.36,0.12,0.82,0.2,1.36c0.62-2.05,0.25-3.96-0.14-5.87c-0.38-1.87-0.79-3.73-0.85-5.71c0.62,1.6,1.48,3.14,1.82,4.79
							c0.79,3.82,1.12,7.72,1.09,11.63c-0.05,5.91-2.69,10.75-6.6,14.95c-6.81,7.32-14.91,12.57-24.68,15.05
							c-2.52,0.64-2.91,0.84-5.5,0.3c-1.32-0.28-1.87-0.76-1.79-2.24c0.49-9.18-1.58-18.35-2.41-27.52
							c-0.45-5.02-1.9-9.74-3.9-14.33c-0.23-0.54-0.45-1.09-0.72-1.74c4.7-0.2,9.15-1.19,13.63-1.98c8.04-1.42,14.87,1.25,21.08,6.1
							c0.23,0.18,0.45,0.37,1.03,0.86c-0.72-1.81-1.66-2.91-2.77-3.9c-1.73-1.54-3.75-2.58-5.84-3.49c-0.79-0.34-1.3-0.75-1.35-1.68
							c-0.12-2.16,1.92-4.66,4.02-5.01c1.65-0.28,3.31-0.23,5.42-0.24c-1.38-1.12-2.63-1.02-3.78-1.07
							c-4.14-0.19-7.82,1.34-11.55,2.93c-5.47,2.32-11.16,2.55-16.83,0.6c-2.55-0.88-4.23-2.86-5.71-5.02
							c-7.91-11.55-8.8-23.77-3.52-36.59c0.12-0.28,0.23-0.55,0.36-0.82c0.15-0.31,0.46-0.66,0.04-0.93
							c-0.48-0.31-0.59,0.23-0.76,0.47c-4.56,6.41-7.92,13.38-9.72,21.07c-0.21,0.92-0.38,1.84-0.65,2.74
							c-0.07-4.94-0.41-9.91,1.77-14.71c-1.45,0.77-2.04,2.01-2.3,4.32c-0.19,1.64-0.24,3.32-0.91,5.06
							c-0.27-2.41-0.51-4.62-0.76-6.84c-1.15,5.61-1.43,11.22-1.13,16.83c0.22,4.05-0.14,6.08-2.48,9.4
							c-0.77-0.69-1.2-1.59-1.65-2.47c-1.85-3.56-3.18-5.89-4.84-9.54c-1.58-3.47-2.99-6.81-2.17-10.53
							c0.34-1.53,1.04-3.47-0.47-4.55c-1.58-1.14-3.35,0-4.88,0.78c-3.2,1.63-5.23,4.26-6.14,8.12c-1.14-4.09-2.15-7.84-3.64-11.44
							c-1.33-3.22-2.89-6.31-4.97-9.13c-1.68-2.27-0.65-7.95,1.76-9.86c2.31-1.83,4.9-3.25,7.43-4.74
							c5.11-3.01,10.34-5.84,15.09-9.43c1.53-1.16,3.05-2.35,4.04-4.05c0.28-0.47,0.56-0.66,1.15-0.5
							C309.47,201.34,319.6,204.19,329.79,207.06z"/>
						<path class="st13" d="M281.81,168.35c-6.11,5.24-12.07,10.65-18.56,15.4c-1.98,1.45-4.08,2.74-6.13,4.1
							c-6.21,4.16-16.66,2.26-21.68-2.79c-1.61-1.62-2.35-3.76-3.12-5.82c-3.4-9.12-5.81-18.52-7.26-28.15
							c-0.54-3.62,0.19-7.17,0.93-10.71c1.38-6.58,1.85-13.29,2.6-19.95c0.21-1.9,0.71-3.77,0.97-5.67c0.15-1.07,0.75-1.62,1.71-1.8
							c15.16-2.7,30.08-2.67,44.44,3.86c3.67,1.67,7.09,3.75,10.38,6.07c0.94,0.67,1.07,1.27,0.85,2.35
							c-1.69,8.36-2.03,16.78-0.68,25.22c0.41,2.55,0.9,2.61,2.86,0.95c2.22-1.87,3.82-4.31,5.93-6.28c0.61-0.57,1.27-1.1,1.91-1.64
							c0.57-0.49,1.01-0.7,1.41,0.25c0.28,0.66,0.98,0.85,1.68,0.8c4.63-0.34,8.1,4.13,6.47,9.54c-0.87,2.9-2.77,5.01-5.1,6.78
							c-2.71,2.06-5.83,3.3-9.08,4.19c-1.42,0.39-2.69-0.25-3.89-0.99c-1.58-0.98-2.76-0.43-2.84,1.4
							c-0.22,5.48-1.72,10.77-2.37,16.19c-0.26,2.19-0.85,4.35-0.39,6.59c0.12,0.61-0.42,0.96-0.74,1.36
							c-2.78,3.43-6.14,6.23-9.81,8.77c3.37-6.25,5.42-12.97,7.34-19.75c-0.96,0.94-1.22,2.23-1.67,3.4
							c-2.15,5.52-4.12,11.12-7.39,16.14c-1.4,2.15-3.06,3.96-5.32,5.23c-1.99,1.11-3.94,2.29-5.81,3.59
							c-2.95,2.05-6.28,2.47-9.86,2.69c0.22-1.6,0.95-3.04,0.54-4.72c-1.1,0.65-1.12,1.89-1.71,2.76c-0.4,0.59-0.08,1.81-1.16,1.76
							c-1.12-0.05-2.51-0.19-3.05-1.25c-1.95-3.79-4.62-7.34-4.5-11.99c0.62-0.11,0.92,0.42,1.31,0.69c2.63,1.86,5.48,3.2,8.66,3.78
							c2.23,0.41,4.24,0.05,6.07-1.45C266.36,190.58,274.81,180.09,281.81,168.35z"/>
						<g>
							<path class="st12" d="M232.24,134.32c1.22,2.37,0.88,2.5,2.7,3.04c1.83,0.54,9.06-0.07,9.06-0.07s1.29-0.74,1.15-1.22
								c-0.14-0.47-1.96-3.65-1.96-3.65l-8.65-0.2C234.54,132.22,233.93,132.9,232.24,134.32z"/>
							<path class="st12" d="M260.9,136.14c1.01,1.96,3.72,3.18,3.72,3.18l8.49,0.06l3.41-1.95c0,0-2.91-2.77-4.46-3.38
								c-1.56-0.61-7.91-0.88-8.72-0.74C262.52,133.44,260.9,136.14,260.9,136.14z"/>
						</g>
						<path class="st12" d="M325.8,123.96c-3.87,1.87-6.82,0.56-9.33-2.22c-3.74-4.15-5.69-9.25-7.48-14.42
							c-1.08-3.12-1.87-6.31-2.61-9.74c-0.93,1.28-1.54,2.59-2.63,3.54c-1.66,1.44-3.23,1.34-4.68-0.32
							c-1.83-2.09-1.64-4.5-1.2-6.99c0.54-2.97,0.29-3.23-2.63-2.62c-4.73,0.98-9.25-0.01-13.86-1.04
							c-10.09-2.25-14.7-9.1-16.39-18.62c-0.21-1.16-0.4-2.32-0.66-3.88c-2.85,4.83-5.05,9.5-6.91,14.35
							c-0.75,1.96-1.93,3.53-3.56,4.86c-2.13,1.74-4.69,0.91-7.39,1.61c3.08-3.56,4.2-7.55,5.27-11.7
							c-0.99,0.13-1.04,0.85-1.24,1.34c-2.41,6.01-7.09,9.57-13.08,11.07c-3.47,0.87-6.98-0.49-9.91-2.73
							c-1.98-1.51-3.4-3.54-4.81-5.56c-0.37-0.53-0.73-1.06-1.19-1.74c-0.09,3.07,2.9,8.35,6.58,11.86
							c-3.54,0.24-6.99-1.97-9.69-6.4c-3.99,9.08,0.45,15.65,6.14,22.23c-9.39-6.68-14.85-16.92-11.83-26.87
							c2.33-7.69,9.95-13.74,17.37-13.6c0.3,0.01,0.6,0.01,0.9,0.04c2.52,0.25,2.52,0.26,2.3,2.73c-0.43,4.72-0.1,6.67,1.52,8.93
							c0.37-0.01,0.32-0.31,0.29-0.51c-1.36-9,2.08-15.84,9.79-20.29c12.48-7.2,25.58-8.14,38.82-2.32
							c7.13,3.13,11.8,8.71,13.52,16.47c0.57,2.55,0.34,5.14,0.14,7.71c-0.03,0.41-0.25,0.95,0.25,1.11
							c0.74,0.23,0.68-0.56,0.79-0.92c0.5-1.66,0.99-3.35,0.93-5.11c-0.04-1.34,0.58-2,1.83-2.44c7.65-2.71,14.48-1.04,20.4,4.18
							c8.57,7.55,8.97,18.57,3.72,28.23c-0.42,0.77-0.93,0.76-1.61,0.75c-2.22-0.03-4.34,0.39-6.75,1.52
							c1.77,0.55,3.2,0.49,4.55,0.43c3.7-0.14,6.3,1.69,8.38,4.42c6.76,8.87,1.57,24.32-9.15,27.35c-0.6,0.17-1.23,0.23-1.94,0.21
							C324.95,135.76,326.85,130.68,325.8,123.96z"/>
						<path class="st14" d="M177.24,203.72c-28.23-0.41-36.83-1.63-62.17-10.81c-1.12-0.4-1.13-0.81-0.69-1.77
							c2.09-4.58,3.33-7.55,5.81-11.93c1.9-3.35,4.86-5.4,8.22-6.97c6.99-3.26,14.46-4.66,22.04-5.56
							c14.38-1.71,28.07,0.89,41.16,6.87c2.01,0.92,3.85,2.21,5.83,3.18c10.5,5.13,10.54,15.71,9.76,23.73
							c-0.11,1.16-0.83,1.4-1.83,1.5c-3.04,0.3-6.07,0.77-9.12,1.01C189.86,203.48,183.44,203.66,177.24,203.72z"/>
						<path class="st12" d="M133.42,235c2.83,4.73,7.1,7.19,11.89,9.59c-0.36-1.05-0.96-1.42-1.46-1.86
							c-2.19-1.87-4.4-3.72-6.58-5.6c-0.4-0.35-0.74-0.79-1.07-1.21c-2.14-2.73-1.12-5.29,2.31-5.85c0.41-0.07,0.83-0.14,1.65-0.29
							c-1.95,2.58-0.07,3.94,1.42,5.37c4.86,4.66,10.13,8.81,15.8,12.46c3.07,1.98,6.09,2.32,9.53,0.93
							c4.79-1.93,9.44-4.09,13.91-6.67c0.51-0.29,1.01-0.6,1.72-1.02c-0.13,5.42-0.18,10.61-1.15,15.74c-0.19,1-0.86,1.55-1.69,1.62
							c-4.04,0.34-7.58,2.11-11.21,3.67c-1.64,0.71-3.27,1.45-4.88,2.26c3.22-0.34,6.3-1.26,9.36-2.25c1.32-0.43,3-1.7,3.94-0.86
							c0.75,0.66-0.3,2.55-0.65,3.86c-0.68,2.6-1.46,5.18-2.25,7.75c-0.96,3.11-2.79,5.67-5.09,7.94
							c-3.51,3.46-6.91,7.02-10.97,9.85c-0.69,0.48-1.34,1.06-0.68,1.9c0.66,0.85,1.4,0.26,2.04-0.19c4.24-3,7.86-6.69,11.46-10.38
							c0.46-0.47,0.9-0.96,1.45-1.38c-1.26,3.52-3.9,6.22-5.77,9.41c1.8-0.71,3.01-2.08,4.14-3.5c2.61-3.29,4.28-7.04,5.27-11.12
							c1.07-4.42,2.25-8.82,3.29-13.25c0.26-1.09,1.1-1.43,1.85-1.78c1.66-0.77,2.36-2.05,2.63-3.77c0.72-4.52,0.9-9.07,1.01-13.63
							c0.02-0.72,0.04-1.44,0.11-2.15c0.23-2.25-0.02-4.22-2.59-5.05c-0.74-0.24-0.85-1.09-1.28-1.47c3.1-2.48,6.73-2.24,10.35-2.11
							c-0.6,6.17-1.06,12.35-1.82,18.52c-1.74,14.21-8.29,25.98-17.53,36.53c-4.27,4.88-8.93,9.26-14.98,11.83
							c-4.84,2.06-9.88,2.91-15.1,1.53c-1.89-0.5-3.5-1.42-4.84-2.93c-3.59-4.06-6.8-8.37-9.35-13.18
							c-2.04-3.84-1.64-7.77-0.67-11.74c0.76-3.08,1.78-6.09,3.02-9.01c0.2-0.47,0.16-1.25,1.17-0.81
							c3.32,1.45,6.86,1.73,10.41,1.61c4.39-0.15,8.74,0.61,13.12,0.43c0.54-0.02,1.41,0.28,1.5-0.54c0.1-0.92-0.87-0.67-1.36-0.73
							c-5.34-0.6-10.52-1.69-15.36-4.16c-5.15-2.63-8.72-6.61-10.85-11.97c-0.77-1.93-0.81-3.65,0.3-5.47
							C130.31,239.58,131.73,237.31,133.42,235z"/>
						<path class="st15" d="M172.56,246.13c2.82-1.29,5.58-2.69,8.27-4.25c0.51-0.29,1.01-0.6,1.72-1.02
							c-0.13,5.42-0.18,10.61-1.15,15.74c-0.19,1-0.86,1.55-1.69,1.62c-4.04,0.34-7.58,2.11-11.21,3.67
							c-0.58,0.25-1.16,0.5-1.73,0.76c2.83-2,5.78-5.07,5.78-5.07V246.13L172.56,246.13z M164.28,264.07
							c-0.43,0.17-0.84,0.26-1.19,0.26c-2.98,0,8.38,0.54,8.38,0.54l-8.9,21.86c2.19-1.97,4.25-4.08,6.35-6.15
							c2.3-2.27,4.13-4.83,5.09-7.94c0.79-2.57,1.57-5.15,2.25-7.75c0.34-1.31,1.39-3.2,0.65-3.86c-0.94-0.83-2.62,0.43-3.94,0.86
							C170.13,262.82,167.26,263.67,164.28,264.07L164.28,264.07z M157.78,292.72l-7.41,8.05c2.22-0.35,4.4-1.02,6.54-1.93
							c6.05-2.57,10.71-6.95,14.98-11.83c9.24-10.55,15.79-22.32,17.53-36.53c0.76-6.16,1.22-12.34,1.82-18.52
							c-3.62-0.13-7.25-0.36-10.35,2.11c0.44,0.38,0.54,1.23,1.28,1.47c2.57,0.83,2.83,2.79,2.59,5.05
							c-0.07,0.71-0.1,1.43-0.11,2.15c-0.11,4.56-0.29,9.11-1.01,13.63c-0.27,1.72-0.97,3-2.63,3.77c-0.75,0.35-1.59,0.69-1.85,1.78
							c-1.04,4.43-2.22,8.83-3.29,13.25c-0.99,4.08-2.66,7.82-5.27,11.12c-1.13,1.42-2.34,2.79-4.14,3.5
							c1.88-3.19,4.51-5.89,5.77-9.41c-0.55,0.42-0.99,0.91-1.45,1.38c-3.61,3.7-7.22,7.39-11.46,10.38
							C158.84,292.48,158.3,292.9,157.78,292.72z"/>
						<path class="st12" d="M198.76,259.24c-2.34,4.25-3.97,8.55-6.47,12.42c3.26-13.24,1.14-26.42-0.18-39.75
							c7.19-0.44,14.59-0.88,22.23-2.25c-1.89,2.85-3.5,5.53-4.7,8.42c-0.67,1.6-1.33,3.21-2.07,4.78c-0.45,0.96-0.87,2-2.09,2.31
							c-0.63,0.16-0.83,0.66-0.72,1.26c0.12,0.67,0.68,0.79,1.22,0.86c1.13,0.15,2.26,0.37,3.39,0.37c1.17,0,1.37,0.43,1.22,1.51
							c-0.84,5.88-1.61,11.77-2.4,17.65c-1.74,12.96-3.52,25.92-5.21,38.89c-0.91,6.96-2.19,13.87-2.52,20.9
							c-0.35,7.46-0.71,14.91-1.07,22.36c-6.04-1.91-11.97-2.45-16.67-6.17c1.93-8.05,5.3-20.15,6.64-28.63
							c1.35,3.44,1.94,6.62,2.28,9.87c0.35,3.33-0.36,6.51-1.23,9.7c1.83-2.82,2.81-5.89,2.9-9.24c0.13-4.64-1.11-9.02-2.48-13.38
							c-2.02-6.41-2.49-12.89-1.06-19.5c1.18-5.45,2.21-10.92,3.27-16.4c0.13-0.68,0.44-1.22,0.77-1.79c2.23-3.86,4.06-7.88,5-12.26
							C198.92,260.64,199.18,260.14,198.76,259.24z"/>
						<path class="st12" d="M230.34,110.97c1.31-5.9,2.56-11.51,3.8-17.12c0.16-0.73,0.53-1.02,1.28-1.22
							c28.09-7.58,56.39,1.96,72.98,27.44c0.37,0.57,0.6,1.02,0.25,1.77c-1.86,4.01-3.65,8.07-5.53,12.27
							c-1.55-2.2-2.94-4.32-4.49-6.32c-1.55-2-3.56-3.5-5.83-4.73c2.95,3.3,5.91,6.58,7.8,10.65c-2.6-2.84-5.15-5.71-8-8.31
							c-11.8-10.74-25.77-15.84-41.61-16.18C244.12,109.07,237.34,109.66,230.34,110.97z"/>
						<path class="st14" d="M205.9,204.18c-1.27,2.88-3.26,5.08-5.61,6.97c-5.54,4.45-12.04,7.1-18.52,9.77
							c-0.37,0.15-0.82,0.14-1.24,0.14c-18.58-0.06-37.03-1.49-55.23-5.43c-4.5-0.97-8.96-2.18-13.1-4.3
							c-0.59-0.3-1.16-0.62-1.72-0.97c-2.94-1.88-3.11-2.31-1.97-5.51c0.95-2.65,1.97-5.27,2.94-7.91c0.26-0.69,0.52-1.08,1.42-0.73
							c15.91,6.14,32.57,8.33,49.46,9.15c14.1,0.68,28.19,0.72,42.22-1.16C204.96,204.14,205.37,204.18,205.9,204.18z"/>
						<path class="st14" d="M215.93,205.02c5.99,2.16,11.71,3.73,16.48,7.66c0.55,0.46,1.07,0.97,1.52,1.53
							c1.96,2.43,1.77,4.52-0.63,6.57c-1.94,1.66-4.23,2.69-6.61,3.56c-7.5,2.72-15.33,3.82-23.22,4.62
							c-8.73,0.88-17.49,1.14-26.25,0.94c-23.63-0.55-47.03-2.86-69.83-9.56c-5.24-1.54-10.34-3.44-15.12-6.13
							c-1.78-1-3.46-2.15-4.89-3.64c-2.65-2.77-2.47-5.2,0.6-7.56c1.97-1.52,4.23-2.47,6.55-3.31c4.75-1.72,8.54-2.68,13.69-3.49
							c-1.17,3.29-2.19,6.46-3.42,9.54c-0.74,1.86-0.22,3.25,1.05,4.55c2.06,2.12,4.67,3.31,7.37,4.34
							c7.21,2.75,15.87,4.57,23.46,5.73c15.93,2.42,31.97,3.48,48.07,3.26c8.52-0.12,17.03-0.48,25.37-2.49
							c2.16-0.52,4.28-1.19,6.11-2.53c1.54-1.13,2.23-2.46,1.67-4.5C217.11,211.23,216.62,208.28,215.93,205.02z"/>
						<path class="st16" d="M287.18,262.94c-1.42-1.51-3.28-2.04-5.19-2.38c-0.8-0.14-1.26-0.36-1.38-1.25
							c-0.48-3.71-0.66-7.43,0.01-11.12c0.73-4.07,3.36-6.47,7.35-7.71c0.38,1.59-0.13,3.03-0.37,4.44
							c-0.45,2.63-0.19,5.11,0.76,7.58c2.09,5.43,4.38,10.77,7.47,15.72c3.47,5.57,5.52,11.61,6.66,18.02
							c0.23,1.3,0.35,2.64,0.78,3.87c0.67,1.88-0.03,3.18-1.26,4.49c-1.54,1.64-2.95,3.4-5.01,4.71c0.17-0.94,1.08-1.49,0.74-2.42
							c-11.85,6.5-13.54,6.55-21.82,4.71c-0.09,0.67,0.73,0.67,0.89,1.29c-2.06-0.62-5.41-0.52-6.75-2.12
							c-0.8-0.96-0.55-3.66-0.02-4.96c0.65-1.59,5.84-2.18,7.66-2.39c2.03-0.23,2.5-0.75,2.15-2.68c-3.78,1.15-7.65,2.42-11.54,2.11
							c-1.16-0.09-2.7-6.17-1.04-6.42c2.61-0.4,6.59-1.68,9.07-2.58c2.07-0.75,3.04-3.23-2.01-1.65c-2.52,0.79-7.15,2.64-9.87,2.41
							c-0.98-0.08-1.46-3.51-1.34-5c0.09-1.12,0.81-1.4,1.58-1.65c2.91-0.93,5.82-1.86,8.73-2.79c2-0.63,5.1-5.12-0.49-2.6
							c-2.67,1.2-5.4,2.27-9.25,2.95c-2.03-0.28-2.61-3.64-2.68-5.51c-0.05-1.4,0.47-2.18,1.89-2.61c4.3-1.3,8.53-2.8,12.84-4.08
							c3.38-1,6.85-1.13,10.32-0.28C286.39,263.12,286.71,263.39,287.18,262.94z"/>
						<path class="st12" d="M302.46,275.58c4.32,9.31,7.48,18.84,7.17,29.23c0.55-1.08,0.66-7.47,0.29-9.36
							c-1.24-6.33-1.76-12.84-4.83-18.7c-0.22-0.42-0.28-0.91-0.41-1.38c-0.19-0.71,0.01-0.96,0.8-0.85
							c4.03,0.55,8.1,0.91,11.95,2.39c0.89,0.34,1.47,0.86,1.9,1.72c3.3,6.61,4.74,13.64,4.98,20.98
							c0.35,10.75,0.3,21.48-1.25,32.14c-0.36,2.49-1.21,4.87-2.1,7.23c-0.25,0.67-0.58,1.13-1.31,1.3
							c-4.59,1.06-9.18,2.14-14.11,3.3C310.3,320.56,308.12,297.99,302.46,275.58z"/>
						<path class="st17" d="M291.97,182.68c-1.17,2.6-2.81,4.81-4.35,7.09c-1.54,2.29-3.37,4.35-5.25,6.37
							c4.38-3.09,7.49-7.32,10.53-12.19c0.51,2.79,0.9,5.07,1.36,7.34c0.18,0.86-0.17,1.29-0.83,1.75
							c-4.13,2.88-8.48,5.44-12.44,8.57c-1.58,1.25-3.17,2.5-4.67,3.88c6.38-3.12,12.42-6.82,18.41-10.67
							c0.88,2.66,0.88,2.66-1.45,3.93c-11.22,6.07-22.45,12.1-33.65,18.21c-2.54,1.39-5.03,2.5-7.89,1.06
							c4.59-3,9.91-4.75,14.64-7.64c-3.73,0.93-7.32,2.23-10.77,3.91c-1.67,0.81-3.34,1.6-4.99,2.46c-0.71,0.37-1.29,0.34-1.66-0.37
							c-0.4-0.79,0.49-0.82,0.83-1.03c6.92-4.4,14.18-8.27,20.92-12.97c4.83-3.38,9.49-6.96,13.22-11.58
							c1.9-2.35,3.51-4.88,4.18-7.87c0.29-1.32,0.86-1.43,1.92-0.93C290.61,182.28,291.26,182.44,291.97,182.68z"/>
						<path class="st17" d="M276.61,249.45c-7.88-10.17-14.62-20.81-26.6-26.06c2.7-0.45,5.23,0.42,11.13,3.85
							c-1.32-2.15-5.49-4.47-9.15-5.09c-0.36-0.06-0.71-0.11-1.07-0.16c-0.55-0.08-0.83-0.31-0.74-0.95
							c0.09-0.69,0.51-0.74,1.02-0.67c7.24,0.96,13.88,3.13,18.09,9.66C273.01,235.78,274.92,242.27,276.61,249.45z"/>
						<path class="st17" d="M227.16,193.6c2.31,3.09,3.75,6.66,6.1,9.7c-1.11-2.46-2.22-4.93-3.35-7.39
							c-0.27-0.6-0.65-1.14-0.95-1.73c-1.24-2.49-1.23-2.49,0.97-4.12c1.01-0.74,2.02-1.48,3.22-2.36
							c2.83,9.82,7.32,18.75,12.35,27.45c-1.06,0.58-1.58,0.22-2.25-0.63c-1.81-2.3-3.52-4.71-5.87-6.57
							c1.43,2.82,3.48,5.25,5.3,7.91C239.72,215.55,227.02,197.23,227.16,193.6z"/>
						<path class="st17" d="M271.57,246.31c-3.79-2.23-7.83-3.62-11.75-5.31c-5.55-2.4-9.26-6.64-11.35-12.31
							c-0.12-0.34-0.28-0.68-0.33-1.02c-0.09-0.74,0.12-1.51,0.6-2c0.51-0.52,1.1,0.1,1.6,0.32c5.81,2.64,10.26,6.98,14.36,11.71
							C267.1,240.46,269.29,243.43,271.57,246.31z"/>
						<path class="st17" d="M211.24,244.37c9.44-6.94,18.07-14.83,29.69-18.15c-1.66,2.49-3.74,4.46-5.66,6.56
							c-1.21,1.33-2.63,2.48-3.8,3.84c-4.49,5.22-10.69,6.52-17.02,7.5C213.48,244.28,212.52,244.69,211.24,244.37z"/>
						<path class="st13" d="M149.68,238.91c2.19,1.06,4.23,0.76,6.38-0.16c2.27-0.97,4.66-0.26,6.84,0.53
							c2.73,1,5.37,1.07,8.04,0.01c0.94-0.38,1.28-0.19,1.4,0.81c0.35,3.11-0.1,3.92-2.99,5.14c-7.07,2.99-7.61,2.95-13.9-1.51
							c-1.99-1.41-3.92-2.91-5.88-4.37C149.6,239.21,149.64,239.06,149.68,238.91z"/>
						<path class="st17" d="M210.58,241.94c1.56-4.58,3.63-8.83,6.81-12.49c0.41-0.47,0.93-0.53,1.44-0.64
							c3.75-0.82,7.45-1.81,10.98-3.37c0.14-0.06,0.33-0.01,0.66-0.01c-0.7,0.6-1.28,1.09-1.86,1.59c3.46-1.48,6.96-2.67,10.82-2.81
							C228.34,227.74,219.79,235.33,210.58,241.94z"/>
						<path class="st10" d="M305.92,263.24c2.83,4.18,6.92,6.9,10.12,10.89c-4.33-1.09-8.42-1.5-12.52-1.94
							c-0.89-0.09-1.29-0.35-0.94-1.33C303.47,268.33,304.53,265.86,305.92,263.24z"/>
						<path class="st12" d="M297.08,318.77c0.22,8.79,0.86,16.85,2.81,24.76c0.11,0.45,0.54,1.22-0.16,1.41
							c-0.81,0.22-0.82-0.71-0.98-1.21c-1.35-4.32-1.89-8.79-2.33-13.26c-0.79-7.95-1-15.93-1.08-23.91
							c-0.01-0.61-0.32-1.42,0.78-1.41c1.06,0.02,0.62,0.85,0.65,1.34C296.98,310.81,297.19,315.13,297.08,318.77z"/>
						<path class="st14" d="M166.69,156.94c2.48,0,2.65,2.56,2.07,4.97c-0.17,0.7-0.47,0.97-1.24,0.86
							c-2.07-0.29-2.12-0.24-4.19-0.44c-0.6-0.06-0.78-0.3-0.82-0.89C162.35,159.23,164.44,156.94,166.69,156.94z"/>
						<path class="st12" d="M223.86,205.23c-2.37-0.86-5.06-1.82-7.75-2.8c-0.6-0.22-2.1-3.63-1.75-4.17
							c0.45-0.67,1.12-0.43,1.72-0.08c1.35,0.79,2.64,1.67,3.75,2.78C221.27,202.39,222.63,203.91,223.86,205.23z"/>
						<path class="st12" d="M173.3,243.45c1.09-2.04,1.91-3.6,2.75-5.15c0.13-0.25,0.4-0.66,0.53-0.63c1.88,0.38,3.8,0.17,5.74,0.32
							C179.7,240.27,176.7,241.67,173.3,243.45z"/>
						<path class="st17" d="M244.4,222.51c0.24-1.36,0.63-2.68,1.4-3.84c0.29-0.44,0.63-0.99,1.27-0.82
							c0.62,0.16,0.98,0.67,1.05,1.32c0.22,1.94-0.69,3.6-1.37,5.31c-0.14,0.36-0.47,0.37-0.72,0.15
							C245.34,224.04,244.2,223.78,244.4,222.51z"/>
						<path class="st17" d="M232.64,224.18c1.65-1.32,3.27-2.57,4.32-4.49c0.49-0.89,1.8-0.7,2.78-0.76
							c0.46-0.03,0.3,0.39,0.29,0.65c-0.03,0.71-0.09,1.43-0.09,2.14c0,0.46,0,0.79-0.62,0.81
							C236.99,222.62,234.84,223.47,232.64,224.18z"/>
						<path class="st17" d="M244.11,223.03c-1.34-1.38-1.81-2.75-1.42-4.27c0.31-1.24,1.52-1.09,2.69-1.26
							C244.51,219.23,244.04,220.93,244.11,223.03z"/>
						<path class="st11" d="M218.45,295.23c-0.09,2.29-2,4.06-4.27,3.96c-2.16-0.1-3.98-2.01-3.94-4.15
							c0.04-2.21,2.04-4.15,4.22-4.08C216.71,291.04,218.54,292.99,218.45,295.23z"/>
						<path class="st11" d="M225.33,255.58c-0.02,2.35-1.79,4.1-4.12,4.07c-2.18-0.03-3.96-1.84-3.99-4.05
							c-0.03-2.27,1.84-4.19,4.07-4.18C223.58,251.42,225.35,253.25,225.33,255.58z"/>
						<path class="st11" d="M211.36,344.8c-2.32-0.03-4.09-1.87-4-4.16c0.09-2.24,1.83-3.9,4.1-3.89c2.35,0,4.11,1.77,4.08,4.09
							C215.51,343.15,213.73,344.84,211.36,344.8z"/>
						<path class="st11" d="M301.84,202.66c0.25-0.47,0.61-0.22,0.94-0.14c5.32,1.23,10.53,2.81,15.59,4.86
							c0.44,0.18,0.86,0.41,1.28,0.64c0.47,0.26,1.07,0.5,0.87,1.18c-0.21,0.68-0.85,0.53-1.37,0.47c-1.62-0.19-3.16-0.74-4.65-1.35
							c-4.04-1.66-8.06-3.39-12.07-5.1C302.19,203.1,301.8,203.09,301.84,202.66z"/>
						<path class="st11" d="M248.53,172.7c-2.6,0-4.73-0.3-6.8-0.96c-1.63-0.52-1.87-1.16-0.73-2.34c1.48-1.54,1.96-3.17,1.05-5.2
							c-0.68-1.52-1.21-3.12-1.79-4.68c-0.24-0.64-0.8-1.3-0.12-1.98c0.56-0.57,1.23-0.29,1.86-0.14c3.09,0.71,6.18,1.42,9.35,1.71
							c4.42,0.41,8.72-0.09,12.9-1.59c0.68-0.24,1.42-0.67,2-0.05c0.56,0.6,0.17,1.34-0.11,2.01c-2.63,6.18-6.56,10.97-13.42,12.67
							C251.2,172.52,249.67,172.74,248.53,172.7z"/>
						<path class="st11" d="M256.47,124.12c5.04,0.11,10.04-0.71,15.08-0.4c4.61,0.29,7.46,3.27,7.48,8.25
							c-3.12-4.57-7.51-4.21-11.94-3.74c-2.09,0.22-4.17,0.42-6.28,0.25C257.57,128.21,256.84,127.52,256.47,124.12z"/>
						<path class="st11" d="M294.78,152.14c1.9-0.5,3.46-0.39,4.48,1.23c0.7,1.12,0.43,2.15-0.65,3.22
							c-0.15-1.11,0.08-2.25-0.99-2.79c-0.61-0.31-1.29-0.24-1.92,0.02c-0.89,0.37-1.34,0.69-0.46,1.74
							c1.69,2.02,0.76,4.43-1.74,4.9c-0.66,0.12-1.37,0.22-1.59-0.68c-0.17-0.71,0.18-1.17,0.83-1.36c0.52-0.16,1.15-0.19,1.11-0.92
							c-0.03-0.69-0.6-1.07-1.15-1.25c-1.3-0.42-1.43-1.21-1.02-2.37c0.78-2.23,1.72-4.35,3.42-6.04c1.8-1.78,4.22-2.38,6.07-1.47
							c2.23,1.1,2.89,3.07,2.81,5.38c-0.08,2.36-1.1,4.38-2.35,6.31c-0.45,0.71-1.06,1.09-1.79,0.6c-0.69-0.46-0.45-1.15-0.06-1.75
							c0.72-1.1,1.36-2.24,1.75-3.52c0.28-0.94,0.39-1.89,0.23-2.84c-0.36-2.22-2.22-3.08-4.14-1.92
							C296.36,149.39,295.5,150.52,294.78,152.14z"/>
						<path class="st11" d="M263.43,138.6c0.45,0.05,0.91,0.1,1.58,0.17c-0.71-1.39-1.11-2.73-1.08-4.26
							c-1.2,0.21-1.4,1.28-1.99,1.94c-0.69,0.78-1.23,2.25-2.37,1.82c-1.15-0.44-1.22-1.9-1.11-3.54c0.43,0.77,0.7,1.23,0.94,1.66
							c0.42-0.02,0.58-0.29,0.69-0.56c1.2-2.99,3.49-3.82,6.51-3.43c2.73,0.35,5.51,0.33,8.08,1.5c0.65,0.29,0.67,0.4,0.37,1.03
							c-0.17,0.35,0.19,0.49,0.36,0.69c0.83,0.93,1.75,1.8,2.04,3.24c-0.86-0.72-1.72-1.43-2.57-2.15
							c-1.15-0.98-2.41-1.79-3.89-2.14c-0.41-0.1-1.05-0.3-1.28,0.25c-0.24,0.56,0.29,0.98,0.72,1.05c2.01,0.36,2.22,0.91,2.08,2.24
							c-0.03,0.28-0.4,0.78-0.25,1c0.28,0.41,1.92,0,1.59,0.2c-0.87,0.53-4.42,0.92-5.16,0.88
							C266.87,140.1,264.99,140.01,263.43,138.6z"/>
						<path class="st11" d="M230.16,136.04c0.43-1.56,1.7-2.34,2.73-3.56c-0.59,0.1-1.06,0.17-1.46,0.24
							c-0.24-0.13-0.23-0.2-0.09-0.29c1.13-0.75,2.41-1.04,3.74-1.09c1.74-0.06,3.48-0.12,5.21-0.06c3.5,0.13,4.64,0.99,5.79,4.21
							c0.32,0.9-0.87,2.67-1.79,2.67c-0.25,0-0.5-0.02-0.58-0.3c-0.09-0.3-0.01-0.58,0.22-0.82c1.62-1.67-0.63-2.38-1-3.53
							c-0.32-0.99-1.65-1.01-2.69-0.91c-0.2,0.02-0.48,0.2-0.55,0.38c-0.13,0.32,0.13,0.55,0.38,0.73c0.84,0.58,1.83,0.46,2.73,0.56
							c0.44,1.06-1.25,1.72-0.47,2.89c0.13,0.19-0.55,0.36-0.86,0.43c-1.71,0.39-3.44,0.52-5.17,0.17c-0.65-0.13-1.5-0.17-0.39-1.11
							c0.6-0.5-0.3-1.07-0.45-1.62c-0.57-2.09-0.85-2.17-2.74-0.86C231.87,134.78,231.02,135.42,230.16,136.04z"/>
						<path class="st11" d="M248.74,130.05c0.05,0.53,0.05,1.08,0.17,1.6c0.63,2.55,0.37,4.97-0.84,7.31
							c-1.25,2.44-2.32,5-3.76,7.33c-1.23,1.99-0.92,3.69,0.14,5.49c0.35,0.59,0.71,1.18,0.94,1.85c-1.79-1.31-3.13-2.93-3.77-5.11
							c-1.23,1.46-0.27,2.65,0.58,3.87c-1.63-0.35-2.51-1.81-1.97-3.39c0.23-0.66,0.6-1.33,1.07-1.85c3.48-3.78,4.67-8.67,6.33-13.3
							c0.7-1.95-0.19-4.14-0.45-6.21c-0.06-0.47-0.16-0.93-0.14-1.43c0.85,1.18,0.87,2.73,1.73,3.9L248.74,130.05z"/>
						<path class="st11" d="M229.1,129.74c0.58-4.95,2.02-6.29,6.3-6c2.67,0.18,5.33,0.7,8,0.97c0.87,0.09,0.79,0.52,0.67,1.07
							c-0.27,1.24-1.12,1.77-2.32,1.84c-1.57,0.09-3.11-0.15-4.63-0.46C234.17,126.56,231.39,126.5,229.1,129.74z"/>
						<path class="st11" d="M251.76,175.34c-1.52,2.59-3.44,3.49-5.96,3.19c-2.04-0.24-3.38-1.32-4.3-3.63
							C244.86,176.7,248.19,176.5,251.76,175.34z"/>
						<path class="st18" d="M255.24,153.84c3.04-1.59,1.23-3.98,1-6.2c1.45,1.43,2.3,3.45,1.91,4.56
							C257.71,153.45,256.57,153.68,255.24,153.84z"/>
						<path class="st19" d="M239.37,186.27c-2.95-1-4.94-3.41-5.19-6.25C235.17,182.75,237.7,184.15,239.37,186.27z"/>
						<path class="st20" d="M231.82,163.98c0.15-0.54-0.32-1.2,0.39-1.32c0.64-0.1,0.62,0.57,0.78,1c0.3,0.84,0.71,1.64,0.7,2.56
							c0,0.37-0.06,0.75-0.49,0.84c-0.46,0.09-0.87-0.09-0.97-0.56C232.04,165.63,231.94,164.74,231.82,163.98z"/>
						<path class="st21" d="M273.21,164.91c-0.34,0.96-0.63,1.93-1.03,2.86c-0.15,0.35-0.47,0.76-0.98,0.49
							c-0.46-0.24-0.49-0.68-0.31-1.09c0.39-0.87,0.82-1.73,1.25-2.58c0.17-0.33,0.17-0.94,0.79-0.66
							C273.33,164.11,273.24,164.52,273.21,164.91z"/>
						<path class="st22" d="M248.78,130.11c0.12-0.84-0.59-1.56-0.31-2.6c1.06,1.25,1.96,2.38,1.52,4.13
							c-0.96-0.28-0.79-1.15-1.24-1.59C248.74,130.05,248.78,130.11,248.78,130.11z"/>
						<path class="st18" d="M254.58,152.49c-0.95,0.3-1.87,0.6-2.85,0.91C252.2,151.4,253.03,151.15,254.58,152.49z"/>
						<path class="st23" d="M323.93,83.22c2.49,2.8,2.65,6.16,2.31,9.6c-0.25,2.56-0.65,5.11-1.57,7.52
							c-0.2,0.52-0.41,1.4-1.08,1.25c-0.84-0.2-0.55-1.12-0.42-1.69c0.73-3.08,1.62-6.12,1.76-9.33
							C325.04,88.05,324.88,85.59,323.93,83.22z"/>
						<path class="st11" d="M254.43,55.19c-4.91,1.39-8.25,4.72-11.54,8.16c-0.69,0.72-1.68,2.28-2.39,1.6
							c-0.88-0.83,0.6-1.93,1.23-2.74c2.72-3.5,6.09-6.09,10.6-6.87c0.41-0.07,0.83-0.11,1.25-0.14
							C253.85,55.17,254.14,55.19,254.43,55.19z"/>
						<path class="st24" d="M253.67,81.5c-0.06,2.65-2.07,5.15-4.72,5.87C250.36,85.04,252.61,83.74,253.67,81.5z"/>
						<path class="st11" d="M179.15,245.75c0.88,0.03,1.28-0.05,1.47,0.36c0.17,0.37,0.04,0.74-0.27,0.96
							c-2.34,1.7-5.03,2.66-7.75,3.52c-0.29,0.09-0.56-0.09-0.76-0.36c-0.24-0.33-0.09-0.65,0.14-0.77
							C174.5,248.12,177.03,246.83,179.15,245.75z"/>
						<path class="st23" d="M191.43,302.64c0-1.25,0-2.5,0-3.76c0-0.28-0.05-0.65,0.37-0.68c0.38-0.03,0.49,0.31,0.5,0.6
							c0.18,3.96,1.23,7.78,1.93,11.65c0.07,0.37,0.23,0.9-0.31,1.09c-0.63,0.22-0.79-0.36-1.02-0.75
							C191.44,308.26,191.37,305.45,191.43,302.64z"/>
						<path class="st23" d="M236.31,94.29c1.46,3.97-0.76,11.06-3.95,12.28C234.68,102.7,235.27,98.63,236.31,94.29z"/>
						<path class="st24" d="M262.78,106.97c1.58-3.81,3.53-7.49,3.73-12.11C268.08,97.99,265.85,105.09,262.78,106.97z"/>
						<path class="st24" d="M307.16,121.62c-0.87,1.32-6.09,7.16-6.67,7.48C300.29,126.85,304.11,122.57,307.16,121.62z"/>
						<path class="st23" d="M287.91,113.97c-0.77-2.22,0.67-6,2.94-7.49C289.72,108.88,289.36,111.57,287.91,113.97z"/>
						<path class="st11" d="M211.67,225.96c-0.97-0.14-2.1-0.27-3.21-0.46c-0.31-0.05-0.81-0.03-0.78-0.54
							c0.02-0.43,0.44-0.56,0.78-0.61c1.72-0.24,3.43-0.49,5.15-0.66c6.09-0.61,11.59-2.72,16.58-6.25c0.33-0.23,0.7-0.93,1.16-0.39
							c0.44,0.52-0.26,0.82-0.56,1.12C225.62,223.57,218.95,225.29,211.67,225.96z"/>
						<path class="st11" d="M89.96,208.43c2.52,1.75,5.01,3.37,7.74,4.58c1.8,0.8,3.64,1.52,5.46,2.27
							c1.11,0.46,2.22,0.91,3.18,1.64c0.31,0.24,0.84,0.42,0.67,0.94c-0.19,0.57-0.72,0.27-1.09,0.24
							c-0.53-0.04-1.08-0.14-1.58-0.34c-5.14-2.04-10.05-4.48-14.15-8.3C89.99,209.27,89.7,209.09,89.96,208.43z"/>
						<path class="st23" d="M294.55,273.46c0.29,0.1,0.5,0.11,0.56,0.21c2.18,3.51,3.64,7.27,3.82,11.44
							c0.03,0.57,0.35,1.56-0.52,1.63c-0.75,0.06-0.81-0.94-0.94-1.54c-0.43-1.99-0.68-4.02-1.17-5.99
							C295.84,277.31,295.17,275.47,294.55,273.46z"/>
						<path class="st23" d="M308.57,340.18c3.5-1.28,7.01-2.55,10.5-3.84c0.37-0.13,0.74-0.21,0.97,0.14
							c0.32,0.47-0.08,0.77-0.4,1.04c-1.18,1.02-2.63,1.43-4.09,1.76c-2.26,0.52-4.55,0.91-6.83,1.36
							C308.68,340.48,308.62,340.33,308.57,340.18z"/>
						<path class="st25" d="M320.52,333.94c-2.25,1.69-4.5,1.95-6.86,2.72C315.28,335.37,318.58,333.99,320.52,333.94z"/>
						<path class="st15" d="M216.32,295.06c-0.15,1.13-0.71,1.93-1.91,1.96c-1.2,0.03-1.94-0.74-1.97-1.88
							c-0.03-1.14,0.71-1.94,1.88-1.98C215.51,293.12,216.11,293.92,216.32,295.06z"/>
						<path class="st15" d="M221.26,257.5c-1.22-0.17-1.88-0.87-1.83-2.03c0.04-1.17,0.78-1.92,1.95-1.86
							c1.14,0.06,1.87,0.81,1.81,2C223.14,256.79,222.38,257.39,221.26,257.5z"/>
						<path class="st15" d="M211.4,342.73c-1.2-0.18-1.91-0.89-1.85-2.06c0.06-1.08,0.79-1.83,1.88-1.82
							c1.15,0.02,1.93,0.73,1.91,1.95C213.33,342.02,212.56,342.61,211.4,342.73z"/>
						<path class="st17" d="M250.97,170.33c-0.36,0.03-1.25,0.16-2.14,0.18c-0.57,0.01-1.38,0.43-1.67-0.08
							c-0.36-0.61,0.16-1.38,0.47-1.99c1.51-2.91,7.8-4.03,10.28-1.9c0.66,0.57,0.18,0.72-0.2,1.02
							C256.41,168.61,253.7,169.78,250.97,170.33z"/>
						<path class="st12" d="M242.87,159.8c5.63,1.31,11.1,2.1,16.72,1.16C254.92,164.41,244.34,163.84,242.87,159.8z"/>
						<path class="st26" d="M115,208.3c1.05-2.88,2.02-5.74,3.03-8.53c2.09,0.66,3.47,1.13,4.38,1.44
							c-0.83,2.78-1.69,5.76-2.69,8.96c-0.52,1.3-1.99,1.94-3.3,1.43C115.12,211.08,114.48,209.6,115,208.3L115,208.3z
							 M120.5,193.41c3.79-8.92,8.94-16.6,19.69-21.05c4.3-1.78,4.37-1.47,9.09-2.07l-4.32,2.05
							c-12.52,6.08-17.08,12.98-20.42,22.29L120.5,193.41z"/>
						<path class="st16" d="M235.41,137.46c-0.18-0.03-0.34-0.06-0.47-0.1c-1.78-0.53-1.5-0.67-2.62-2.88
							c-0.72,0.51-1.44,1.04-2.15,1.56c0.43-1.56,1.7-2.34,2.73-3.56c-0.59,0.1-1.06,0.17-1.46,0.24c-0.24-0.13-0.23-0.2-0.09-0.29
							c1.13-0.75,2.41-1.04,3.74-1.09c1.74-0.06,3.48-0.12,5.21-0.06c3.5,0.13,4.64,0.99,5.79,4.21c0.32,0.9-0.87,2.67-1.79,2.67
							c-0.25,0-0.5-0.02-0.58-0.3c-0.06-0.2-0.04-0.39,0.04-0.56c-0.32,0.02-0.92,0.07-1.68,0.12c-0.19,0.07-0.44,0.13-0.59,0.17
							c-1.71,0.39-3.44,0.52-5.17,0.17C235.95,137.7,235.52,137.65,235.41,137.46L235.41,137.46z M241.75,127.61
							c-1.57,0.09-3.11-0.15-4.63-0.46c-2.96-0.59-5.74-0.66-8.02,2.58c0.12-1.08,0.29-1.98,0.52-2.74
							c0.82-2.72,2.43-3.49,5.78-3.27c2.67,0.18,5.33,0.7,8,0.97c0.38,0.04,0.57,0.14,0.67,0.29c0.12,0.19,0.07,0.47,0,0.78
							C243.8,127,242.95,127.54,241.75,127.61L241.75,127.61z M247.16,124.79c-1.13-4.39-1.71-9.81-0.67-13.47
							c-5.04,0.15-10.12,0.75-15.22,1.66c-0.96,0.17-1.56,0.72-1.71,1.8c-0.27,1.9-0.76,3.77-0.97,5.67
							c-0.26,2.31-0.48,4.62-0.73,6.92c-0.46,4.37-0.97,8.72-1.88,13.03c-0.74,3.54-1.48,7.09-0.93,10.71
							c1.45,9.63,3.86,19.02,7.26,28.15c0.77,2.06,1.51,4.19,3.12,5.82c1.44,1.45,3.33,2.64,5.45,3.5c-0.16-1.59-0.16-3.8,0.36-6.66
							c0.42-2.31,1.35-3.54,2.26-4.2c-0.64-0.45-1.17-1.09-1.62-1.95c-1.87-1.01-2.94-2.4-2.94-3.45c0-0.63,0.63-1.21,1.36-1.82
							c0.05-0.31,0.28-0.66,0.7-1.09c0.78-0.81,1.28-1.64,1.45-2.54c-0.02-0.61-0.07-1.33-0.18-2.1c-0.06-0.18-0.13-0.37-0.22-0.56
							c-0.68-1.52-1.21-3.12-1.79-4.68c-0.11-0.3-0.29-0.6-0.38-0.9c-1.73-2.87-0.2-3.61,0.96-3.61c1.22,0,3.92,1.08,7.44,1.35
							c2.81,0.22,7.1-3.64,8.7-5.19c-0.01-0.2-0.04-0.41-0.07-0.61c-2.19,0.04-8.93,0.12-12.41-0.56c-0.33-0.06-0.62-0.15-0.87-0.24
							c0.14,0.67,0.44,1.34,0.84,2.03c0.35,0.59,0.71,1.18,0.94,1.85c-1.79-1.31-3.13-2.93-3.77-5.11
							c-1.23,1.46-0.27,2.65,0.58,3.87c-1.63-0.35-2.51-1.81-1.97-3.39c0.23-0.66,0.6-1.33,1.07-1.85c3.48-3.78,4.67-8.67,6.33-13.3
							c0.7-1.95-0.19-4.14-0.45-6.21c-0.06-0.47-0.16-0.93-0.14-1.43c0.78,1.08,0.86,2.46,1.52,3.58c-0.08-0.64-0.21-1.26-0.42-1.83
							C247.79,127.01,247.46,125.93,247.16,124.79L247.16,124.79z M232.98,163.66c0.3,0.84,0.71,1.64,0.7,2.56
							c0,0.37-0.06,0.75-0.49,0.84c-0.46,0.09-0.87-0.09-0.97-0.56c-0.18-0.87-0.29-1.76-0.41-2.52c0.15-0.54-0.32-1.2,0.39-1.32
							C232.85,162.56,232.83,163.23,232.98,163.66L232.98,163.66z M251.73,153.4c0.47-2,1.31-2.24,2.85-0.91
							C253.63,152.79,252.71,153.09,251.73,153.4L251.73,153.4z M234.18,180.02c0.98,2.73,3.51,4.12,5.19,6.25
							C236.42,185.28,234.43,182.86,234.18,180.02z"/>
						<path class="st13" d="M273.1,272.5c5.38-2.37,2.31,2.04,0.33,2.67c-0.48,0.15-0.96,0.31-1.45,0.46
							c-0.23,0.79-0.33,1.78-0.04,3.03c0.44,1.96,1.06,3.12,1.6,3.8c0.28-0.09,0.55-0.18,0.79-0.26c5.05-1.58,4.08,0.9,2.01,1.65
							c-0.62,0.23-1.34,0.48-2.11,0.73c-0.42,1.44-0.84,3.85,0.42,5.29c0.77,0.88,1.41,1.47,1.89,1.86
							c1.11-0.31,2.22-0.66,3.32-0.99c0.35,1.91-0.11,2.44-2.1,2.68c0.31,1.33,1.34,3.6,4.73,4.16c4.87,0.81,16.23-5.68,16.23-5.68
							l3.6-6.58c-1.17-6.07-3.18-11.81-6.49-17.11c-3.08-4.94-5.37-10.29-7.47-15.72c-0.95-2.48-1.22-4.95-0.76-7.58
							c0.24-1.41,0.75-2.85,0.37-4.44c-3.99,1.24-6.61,3.63-7.35,7.71c-0.66,3.69-0.48,7.41-0.01,11.12
							c0.11,0.89,0.58,1.11,1.38,1.25c1.92,0.33,3.77,0.87,5.19,2.38c-0.47,0.46-0.79,0.18-1.12,0.1
							c-3.46-0.85-6.93-0.72-10.32,0.28c-1.54,0.46-3.08,0.94-4.61,1.44c-0.85,3.6,0.88,7.02,1.89,7.69
							C273.05,272.46,273.08,272.48,273.1,272.5L273.1,272.5z M296.31,279.21c-0.46-1.89-1.13-3.74-1.76-5.75
							c0.29,0.1,0.5,0.11,0.56,0.21c2.18,3.51,3.64,7.27,3.82,11.44c0.03,0.57,0.35,1.56-0.52,1.63c-0.75,0.06-0.81-0.94-0.94-1.54
							C297.04,283.21,296.79,281.18,296.31,279.21z"/>
						<path class="st16" d="M285.33,251.75c-0.9-3.47-0.22-7.12,1.35-10.81c-3.27,1.33-5.41,3.63-6.06,7.24
							c-0.66,3.69-0.48,7.41-0.01,11.12c0.11,0.89,0.58,1.11,1.38,1.25c1.66,0.29,3.27,0.73,4.59,1.82
							C286.42,259.53,286.06,254.61,285.33,251.75z"/>
						<path class="st15" d="M293.4,342.06c-2.08-1-10.02,11.02-9.93,10.6c1.71-8.44,8-12.94,8.38-21.52
							c0.27-6.11-2.29-14.92-0.91-25.1c-0.07-0.81,0.06-1.76-1.27-1.7c-2.21,0.1-4.36,0.84-6.6,0.69c-0.36-0.03-0.5,0.31-0.63,0.57
							c-0.94,1.9-2.6,2.17-4.44,1.86c-1.83-0.31-3.67-0.64-5.45-1.15c-1.92-0.54-3.36-1.07-4.42-1.74c0.58,4.21,3.43,5.7,8.27,7.08
							c7.57,2.16,7.57,3.51,7.57,3.51l-0.81,23.53l-13.52,23.53l-0.35,1.51l-0.14,0.6c2.95-0.25,29.61-3.92,30.09-5.92
							C299.35,357.95,295.7,343.16,293.4,342.06z"/>
						<path class="st15" d="M357.36,305.04c-8.07,3.44-18.64,4.14-29.51,4c0.46,4.08,0.75,8.17,0.53,12.25
							c-0.08,1.49,0.48,1.97,1.79,2.24c2.6,0.54,2.98,0.34,5.5-0.3c4.78-1.21,9.17-3.09,13.2-5.56c4.19-2.56,8-5.76,11.48-9.49
							c2.51-2.7,4.49-5.65,5.61-8.99C363.63,301.71,360.71,303.61,357.36,305.04z"/>
						<path class="st15" d="M305.26,239.65c-1.11,3.97-0.87,8.04-0.82,12.08c0.27-0.9,0.43-1.83,0.65-2.74
							c1.31-5.59,3.45-10.8,6.27-15.69L305.26,239.65z"/>
						<path class="st15" d="M303.01,246.41c0.67-1.73,0.72-3.41,0.91-5.06c0.01-0.12,0.03-0.23,0.04-0.34l-1.39,1.45
							C302.71,243.74,302.86,245.04,303.01,246.41z"/>
						<path class="st15" d="M301.12,256.39c-0.23-4.22-0.12-8.45,0.44-12.68c-0.95,1.68-4.28,7.5-7.91,13.21
							c1.05,2.1,2.07,3.96,3.34,6.4c0.45,0.87,0.89,1.78,1.65,2.47C300.98,262.47,301.34,260.44,301.12,256.39z"/>
						<path class="st15" d="M321.45,106.9c-1.35,0.05-2.78,0.12-4.55-0.43c2.41-1.13,4.53-1.55,6.75-1.52
							c0.68,0.01,1.19,0.02,1.61-0.75c5.25-9.66,4.86-20.68-3.72-28.23c-2.12-1.87-4.35-3.28-6.69-4.2
							c5.77,17.1,3.85,28.35-1.59,30.48c-1.93,0.76-3.76,1.25-5.36,1.57c0.33,1.19,0.7,2.35,1.1,3.51
							c1.79,5.17,3.74,10.27,7.48,14.42c2.51,2.78,5.46,4.09,9.33,2.22c1.06,6.72-0.84,11.8-7.05,14.91
							c0.71,0.02,1.34-0.04,1.94-0.21c10.72-3.02,15.9-18.48,9.15-27.35C327.75,108.58,325.15,106.75,321.45,106.9L321.45,106.9z
							 M324.67,100.34c-0.2,0.52-0.41,1.4-1.08,1.25c-0.84-0.2-0.55-1.12-0.42-1.69c0.73-3.08,1.62-6.12,1.76-9.33
							c0.11-2.52-0.05-4.98-1-7.35c2.49,2.8,2.65,6.16,2.31,9.6C325.99,95.37,325.59,97.92,324.67,100.34z"/>
						<path class="st15" d="M293.9,103.92c3.64,3.44,4.54,5.93,2.86,10.21c-1.48,3.78-4.06,7.46-5.85,9.77
							c0.57,0.48,1.13,0.98,1.69,1.49c2.85,2.59,5.4,5.47,8,8.31c-1.89-4.07-4.85-7.34-7.8-10.65c2.27,1.23,4.29,2.73,5.83,4.73
							c1.55,2,2.94,4.12,4.49,6.32c1.89-4.21,3.67-8.26,5.53-12.27c0.35-0.75,0.12-1.2-0.25-1.77
							C304.24,113.67,299.34,108.29,293.9,103.92L293.9,103.92z M300.49,129.09c-0.2-2.25,3.62-6.53,6.67-7.48
							C306.28,122.93,301.07,128.78,300.49,129.09z"/>
						<path class="st12" d="M183.98,195.81c0-8.36-1.6-16.12-14.72-28.94c-2.2-0.31-4.41-0.52-6.64-0.63
							c-4-0.19-8.06-0.06-12.17,0.43c-7.58,0.9-15.05,2.3-22.04,5.56c-3.37,1.57-6.32,3.62-8.22,6.97
							c-2.49,4.38-3.72,7.35-5.81,11.93c-0.44,0.96-0.43,1.36,0.69,1.77c11.04,4,18.91,6.49,26.6,8.06
							c9.96,2.03,19.64,2.52,35.57,2.75c1.86-0.02,3.74-0.05,5.63-0.09C183.46,202.4,183.98,200.11,183.98,195.81L183.98,195.81z
							 M144.95,172.34c-12.52,6.08-17.08,12.98-20.42,22.29l-4.03-1.22c3.79-8.92,8.94-16.6,19.69-21.05
							c4.3-1.78,4.37-1.47,9.09-2.07L144.95,172.34z"/>
						<path class="st12" d="M162.34,205.35c-7.25-0.35-14.45-0.96-21.56-2.01c-9.48-1.41-18.81-3.63-27.89-7.14
							c-0.9-0.35-1.16,0.04-1.42,0.73c-0.98,2.64-2,5.26-2.94,7.91c-1.14,3.2-0.97,3.63,1.97,5.51c0.55,0.35,1.13,0.67,1.72,0.97
							c4.14,2.12,8.6,3.33,13.1,4.3c3.72,0.81,7.45,1.51,11.2,2.11c14.55,2.36,29.25,3.27,44.04,3.32c0.04,0,0.09,0,0.13,0
							c0.16-1.08,0.45-2.97,0.89-6.05c0.61-4.26,0.15-7.77-0.11-9.25C175.07,205.84,168.71,205.66,162.34,205.35L162.34,205.35z
							 M122.41,201.21c-0.83,2.78-1.69,5.76-2.69,8.96c-0.52,1.3-1.99,1.94-3.3,1.43c-1.3-0.52-1.94-1.99-1.42-3.3
							c1.05-2.88,2.02-5.74,3.03-8.53C120.12,200.43,121.5,200.9,122.41,201.21z"/>
						<path class="st12" d="M90.66,201.32c0.61,7.25,13.25,14.94,44.98,20.46c1.55,0.27,3.16,0.54,4.8,0.8
							c40.59,6.41,81.19,3.03,92.7-9.24c-0.24-0.23-0.48-0.45-0.73-0.66c-4.77-3.94-10.48-5.51-16.48-7.66
							c0.69,3.26,1.18,6.21,1.97,9.08c0.56,2.03-0.13,3.37-1.67,4.5c-1.83,1.34-3.94,2.01-6.11,2.53
							c-8.34,2.01-16.86,2.37-25.37,2.49c-16.11,0.22-32.14-0.84-48.07-3.26c-0.24-0.04-0.48-0.07-0.72-0.11
							c-7.41-1.16-15.76-2.95-22.74-5.62c-2.7-1.03-5.31-2.22-7.37-4.34c-1.26-1.3-1.79-2.69-1.05-4.55
							c1.23-3.08,2.25-6.25,3.42-9.54c-5.14,0.81-8.93,1.77-13.69,3.49C93.21,200.17,91.9,200.68,90.66,201.32z"/>
						<path class="st15" d="M207.57,242.85c0.74-1.57,1.41-3.17,2.07-4.78c1.2-2.9,2.81-5.57,4.7-8.42
							c-7.64,1.37-15.04,1.81-22.23,2.25c1.32,13.33,3.44,26.5,0.18,39.75c2.5-3.86,4.13-8.17,6.47-12.42
							c0.42,0.91,0.16,1.41,0.05,1.92c-0.94,4.38-2.77,8.4-5,12.26c-0.33,0.57-0.64,1.11-0.77,1.79c-1.05,5.47-2.09,10.95-3.27,16.4
							c-1.44,6.62-0.96,13.09,1.06,19.5c1.37,4.36,2.6,8.74,2.48,13.38c-0.09,3.35-1.07,6.42-2.9,9.24c0.87-3.18,1.58-6.36,1.23-9.7
							c-0.34-3.25-0.93-6.43-2.28-9.87c-1.34,8.48-4.98,23.83-8.53,31.07c2.73-0.3,4.21-0.18,7.83-0.61
							c3.89-15.18,6.06-28.98,5.62-32.72c-0.44-3.74-0.04-0.35-0.06-0.53c-0.06,0.08-0.15,0.14-0.27,0.18
							c-0.63,0.22-0.79-0.36-1.02-0.75c-1.47-2.53-1.54-5.35-1.47-8.15c0-1.25,0-2.5,0-3.76c0-0.28-0.05-0.65,0.37-0.68
							c0.38-0.03,0.49,0.31,0.5,0.6c0.15,3.29,0.9,6.48,1.55,9.68c-1.17-9.82-2.77-25.29,2.03-32.02
							c5.41-7.57,6.22-25.15,6.22-25.15s1.12,0.48,8.12,0.46c0.12-0.87,0.24-1.74,0.37-2.61c0.15-1.08-0.05-1.51-1.22-1.51
							c-1.13,0-2.26-0.22-3.39-0.37c-0.54-0.07-1.1-0.2-1.22-0.86c-0.11-0.6,0.09-1.1,0.72-1.26
							C206.7,244.85,207.12,243.81,207.57,242.85z"/>
						<path class="st15" d="M242.6,232.08c-3.37,4.81-7.21,9.14-12.3,12.22c-4.89,2.96-10.29,3.77-15.89,3.75
							c-0.87,0-1.56-0.09-1.72,1.18c-0.1,0.84-0.21,1.68-0.32,2.52c1.7-0.03,3.67-0.08,5.95-0.17
							c14.33-0.54,25.15-14.33,25.15-14.33s0,0,5.14,6.76c4.99,6.56,16.34,9.05,28.13,13.64c-0.04-0.62-0.13-1.38-0.25-2.32
							c-0.09-0.74-0.32-1.16-1.05-1.42c-5.29-1.93-8.8-4.28-14.21-5.88c-3.31-0.98-6.08-2.77-8.51-5.18
							c-3.65-3.61-6.37-7.88-8.93-12.48C243.34,231.02,242.97,231.55,242.6,232.08z"/>
						<path class="st15" d="M216.12,202.42c2.68,0.98,5.37,1.95,7.75,2.8c-1.23-1.32-2.59-2.84-4.03-4.28
							c-1.1-1.11-2.39-1.99-3.75-2.78c-0.59-0.34-1.27-0.59-1.72,0.08C214.01,198.79,215.52,202.21,216.12,202.42z"/>
						<path class="st16" d="M264.61,203.78c5.69-8.83,10.03-19.53,13.27-29.22c-6.19,9.24-13.43,17.58-22.13,24.71
							c-1.83,1.5-3.85,1.86-6.07,1.45c-3.18-0.58-6.04-1.92-8.66-3.78c-0.39-0.28-0.68-0.8-1.31-0.69
							c-0.12,4.64,2.55,8.19,4.5,11.99c0.54,1.06,1.93,1.2,3.05,1.25c1.08,0.05,0.76-1.17,1.16-1.76c0.59-0.87,0.61-2.11,1.71-2.76
							c0.41,1.68-0.31,3.12-0.54,4.72c3.58-0.22,6.91-0.64,9.86-2.69C261.12,205.85,262.85,204.79,264.61,203.78z"/>
						<path class="st16" d="M274.72,118.87c4.18,2.46,7.78,6.48,10.36,9.93c0.37,0.49,0.71,0.97,1.04,1.44
							c0.05-0.37,0.1-0.74,0.16-1.1c0.2-1.29,0.42-2.59,0.69-3.88c0.22-1.08,0.09-1.68-0.85-2.35c-3.29-2.32-6.71-4.4-10.38-6.07
							c-9.52-4.34-19.3-5.81-29.22-5.52c-0.07,0.25-0.14,0.51-0.19,0.77C257,111.35,267.26,114.49,274.72,118.87z"/>
						<path class="st16" d="M299.26,153.37c0.7,1.12,0.43,2.15-0.65,3.22c-0.15-1.11,0.08-2.25-0.99-2.79
							c-0.61-0.31-1.29-0.24-1.92,0.02c-0.89,0.37-1.34,0.69-0.46,1.74c1.39,1.66,1.01,3.6-0.58,4.49c1.64-0.11,3.38-0.95,4.76-1.99
							c-0.06-0.36,0.12-0.77,0.37-1.14c0.72-1.1,1.36-2.24,1.75-3.52c0.28-0.94,0.39-1.89,0.23-2.84c-0.36-2.22-2.22-3.08-4.14-1.92
							c-1.27,0.77-2.12,1.9-2.85,3.52C296.68,151.65,298.24,151.75,299.26,153.37z"/>
					</g>
					<path class="st15" d="M324.47,307.18c-1.87,1.4-8.16,2.34-16.57,2.1c0.67,11.35,0.02,22.77-2.37,34.32
						c4.93-1.15,9.52-2.24,14.11-3.3c0.74-0.17,1.06-0.63,1.31-1.3c0.89-2.36,1.74-4.74,2.1-7.23
						C324.25,323.6,324.55,315.4,324.47,307.18L324.47,307.18z M313.66,336.66c1.62-1.29,4.92-2.67,6.86-2.72
						C318.27,335.62,316.02,335.89,313.66,336.66L313.66,336.66z M308.57,340.18c3.5-1.28,7.01-2.55,10.5-3.84
						c0.37-0.13,0.74-0.21,0.97,0.14c0.32,0.47-0.08,0.77-0.4,1.04c-1.18,1.02-2.63,1.43-4.09,1.76c-2.26,0.52-4.55,0.91-6.83,1.36
						C308.68,340.48,308.62,340.33,308.57,340.18z"/>
				</g>
				<g>
					<path class="st27" d="M240.94,226.22c-11.63,3.32-20.25,11.21-29.69,18.15c1.27,0.32,2.24-0.09,3.21-0.24
						c6.33-0.99,12.53-2.28,17.02-7.5c1.17-1.36,2.58-2.51,3.8-3.84C237.19,230.68,239.27,228.71,240.94,226.22z"/>
					<path class="st27" d="M248.47,228.69c2.09,5.66,5.8,9.91,11.35,12.31c3.92,1.69,7.96,3.09,11.75,5.31
						c-2.28-2.88-4.47-5.84-6.87-8.62c-4.1-4.73-8.55-9.07-14.36-11.71c-0.49-0.22-1.09-0.84-1.6-0.32c-0.48,0.5-0.69,1.26-0.6,2
						C248.19,228.01,248.35,228.35,248.47,228.69z"/>
					<path class="st26" d="M109.52,213.33c-2.91-1.99-10.45-6.06-9.95-10.52c5.02,4.53,4.73,4.5,11.28,7.87
						c0.81,0.56,1.69,1.39,1.13,2.2C111.44,213.68,110.33,213.88,109.52,213.33z"/>
				</g>
			</g>
			<path class="st26" d="M217.66,259.03c5.6-1.7,5.15-1.34,9.4-4.39l-0.34,1.41C224.96,260.13,221,259.61,217.66,259.03z"/>
			<path class="st26" d="M210.62,299.05c5.6-1.7,5.15-1.34,9.4-4.39l-0.33,1.41C217.93,300.16,213.97,299.63,210.62,299.05z"/>
			<path class="st26" d="M207.92,344.76c5.6-1.7,5.15-1.34,9.4-4.39l-0.33,1.41C215.23,345.86,211.26,345.33,207.92,344.76z"/>
		</g>
	</g>
</g>
</svg>
